<svg width="605" height="228" viewBox="0 0 605 228" fill="none" xmlns="http://www.w3.org/2000/svg">
<g clip-path="url(#clip0_32_235)">
<path d="M580.015 228.251H25.01C17.1961 228.26 9.84342 223.81 5.20058 216.262C0.557733 208.715 -0.822938 198.967 1.48082 190L11.3912 151.536C25.2631 97.5764 67.7144 60.5796 115.855 60.5796H489.189C537.336 60.5796 579.787 97.5384 593.659 151.536L603.519 190C605.822 198.962 604.444 208.704 599.807 216.25C595.17 223.796 587.825 228.25 580.015 228.251Z" fill="#276EF1"/>
<path d="M186.386 92.0891V136.283H154.61V92.7807C159.933 98.6631 186.386 92.0891 186.386 92.0891Z" fill="black"/>
<path d="M154.61 98.9595V83.7139H186.386V116.394C181.221 116.394 177.633 116.394 173.393 114.623C166.539 111.803 159.572 105.921 154.61 98.9595Z" fill="#99644D"/>
<path d="M139.226 48.9743C139.226 47.9635 139.264 46.9679 139.327 45.9875C139.425 44.5995 139.588 43.2192 139.814 41.8531C139.814 41.7011 139.814 41.5415 139.814 41.3895C139.814 21.5079 151.547 5.11465 166.71 2.74345C167.969 2.54365 169.238 2.4421 170.507 2.43945C187.455 2.43945 201.2 19.9195 201.2 41.3895C201.2 41.5339 201.2 41.6783 201.2 41.8227C201.549 43.9518 201.744 46.1132 201.783 48.2827C201.783 48.5183 201.783 48.7463 201.783 48.9818C201.783 48.9818 201.884 50.5019 201.827 53.1847C201.789 54.9251 201.707 56.6502 201.555 58.3755C201.517 58.8391 201.479 59.2951 201.416 59.7511C201.23 61.6055 200.981 63.4421 200.669 65.2611C200.125 68.4479 199.387 71.5825 198.46 74.6395C196.823 80.083 194.62 85.2564 191.904 90.0371L191.777 90.2727C191.315 91.0706 190.847 91.8687 190.347 92.6439C188.58 95.4843 186.631 98.1549 184.519 100.631L184.348 100.821C175.792 112.221 165.786 112.715 156.667 100.821C156.615 100.754 156.56 100.691 156.503 100.631C153.387 96.9637 150.627 92.8845 148.276 88.4715C146.801 85.7271 145.492 82.8596 144.358 79.8911C142.958 76.2466 141.831 72.4594 140.991 68.5747C140.125 64.6281 139.57 60.5924 139.333 56.5211C139.257 55.4115 139.213 54.2867 139.188 53.1695C139.188 52.7667 139.188 52.4095 139.188 52.0219C139.15 50.0839 139.226 48.9743 139.226 48.9743Z" fill="black"/>
<path d="M168.337 71.2884C168.339 71.2554 168.339 71.2222 168.337 71.1892C168.337 71.1892 168.337 71.235 168.337 71.2884Z" fill="black"/>
<path d="M168.337 71.2884C168.339 71.2554 168.339 71.2222 168.337 71.1892C168.337 71.1892 168.337 71.235 168.337 71.2884Z" fill="black"/>
<path d="M136.302 113.316C139.808 115.003 144.668 116.356 154.61 116.356V98.2983C154.262 97.8423 153.908 97.3787 153.573 96.9227C153.237 96.4667 152.895 95.9879 152.566 95.5243C152.237 95.0607 151.965 94.6579 151.674 94.2095C151.611 94.1259 151.56 94.0423 151.503 93.9587C151.271 93.6473 151.059 93.3144 150.87 92.9631C147.592 85.8039 146.535 83.5011 145.111 72.8003C143.776 62.7531 144.675 53.4887 152.25 49.7343C162.749 44.5283 170.299 32.6115 173.64 19.5775C173.64 32.9383 181.481 44.4143 189.075 50.0307C196.524 55.5407 195.188 66.1123 194.6 72.8307C193.663 83.4707 189.246 92.9555 186.373 98.3287V144.347L187.006 144.514C209.155 150.396 228.008 124.754 220.426 99.1039L200.428 29.2447C197.707 16.3399 189.803 6.0799 179.804 2.0899C178.015 1.36567 176.171 0.85651 174.298 0.569901C173.039 0.367895 171.771 0.263811 170.501 0.258301C158.002 0.258301 146.94 10.1383 142.289 23.8183C141.871 25.0571 141.447 26.2579 141.023 27.4587L127.17 77.5199C123.759 88.2967 122.373 106.62 136.302 113.316Z" fill="black"/>
<path d="M218.711 143.761C218.711 143.761 216.655 132.757 218.553 127.619L219.566 124.883L195.891 137.187L218.711 143.761Z" fill="black"/>
<path d="M225.73 228.251C225.727 228.231 225.727 228.21 225.73 228.19H115.254C115.254 228.19 115.254 228.228 115.254 228.251H83.4153V228.144L96.3317 176.586L98.9959 165.946C101.527 153.155 111.995 143.648 122.968 141.39L148.592 134.011C152.102 132.996 154.577 129.226 154.579 124.891V116.364H186.348V124.921C186.35 129.257 188.824 133.027 192.334 134.041L217.965 141.421C228.932 143.701 239.405 153.186 241.937 165.976L257.568 228.251H225.73Z" fill="white"/>
<path d="M225.122 228.198H200.384L121.361 132.894H146.08L225.122 228.198Z" fill="#276EF1"/>
<path d="M182.589 48.7767C179.517 48.7824 176.609 50.442 174.665 53.2987L174.089 54.1423C173.292 55.3132 172.856 56.7792 172.855 58.2919C172.855 59.0852 172.32 59.7283 171.659 59.7283H168.242C167.591 59.7118 167.071 59.0735 167.071 58.2919C167.062 56.7746 166.614 55.3081 165.805 54.1423L165.236 53.3063C163.294 50.4292 160.377 48.7545 157.294 48.7463H144.744C144.702 48.7463 144.668 48.7872 144.668 48.8375V62.2135C144.668 69.6345 149.678 75.6503 155.857 75.6503C160.968 75.6483 165.426 71.4832 166.685 65.5347C166.876 64.5634 167.319 63.6903 167.951 63.0419C169.097 61.9124 170.748 61.9124 171.893 63.0419C172.526 63.693 172.969 64.5687 173.159 65.5423C174.391 71.338 178.667 75.4563 183.645 75.6427C190.012 75.8707 195.169 69.4411 195.169 61.7955V48.8755C195.169 48.8252 195.135 48.7843 195.094 48.7843L182.589 48.7767Z" fill="black"/>
<path d="M173.779 86.9895C172.743 86.2284 171.415 86.3639 170.501 87.3239C169.587 86.3639 168.259 86.2284 167.223 86.9895L162.236 90.6755L163.16 91.6331C165.2 93.7493 167.805 94.9145 170.501 94.9163C173.197 94.9145 175.802 93.7493 177.842 91.6331L178.766 90.6755L173.779 86.9895Z" fill="#99644D"/>
<path d="M436.619 150.168H390.845L390.852 123.097L390.845 77.2007H436.619V150.168Z" fill="black"/>
<path d="M298.361 228.099L309.316 181.526C313.543 163.354 325.08 149.477 339.528 145.205L373.86 135.029C383.84 132.073 390.908 132.954 390.883 119.829V118.248H396.958C397.734 118.248 398.503 118.413 399.23 118.735C400.097 119.113 400.893 119.694 401.572 120.445L413.248 133.334L426.019 120.255C426.653 119.599 427.379 119.084 428.164 118.735C428.892 118.416 429.661 118.251 430.436 118.248H436.663V119.829C436.663 132.939 443.7 132.05 453.687 135.029L488.018 145.205C502.466 149.484 514.003 163.354 518.231 181.526L529.122 228.099H298.361Z" fill="black"/>
<path d="M441.928 52.227L440.796 80.2862C444.694 79.2526 448.39 73.7882 449.485 69.175L451.82 59.219C452.388 56.2183 451.546 53.0843 449.624 51.049C448.481 49.9605 447.02 49.4717 445.573 49.6934C444.125 49.9152 442.814 50.8286 441.935 52.227H441.928Z" fill="black"/>
<path d="M385.485 52.227L386.618 80.2862C382.719 79.2526 379.024 73.7882 377.929 69.175L375.594 59.219C375.03 56.214 375.879 53.0792 377.809 51.049C378.952 49.9605 380.412 49.4717 381.86 49.6934C383.307 49.9152 384.619 50.8286 385.498 52.227H385.485Z" fill="black"/>
<path d="M447.485 50.0991L446.459 56.4755C446.276 57.6307 445.991 59.0367 445.637 60.6175C442.517 74.5103 433.714 102.235 433.714 102.235C430.337 111.921 422.447 118.226 413.703 118.226C404.959 118.226 397.07 111.921 393.693 102.235C393.693 102.235 384.89 74.4799 381.77 60.6099C381.416 59.0291 381.137 57.6307 380.947 56.4679L379.922 50.0915C375.872 24.9583 391.364 1.01067 412.672 0.265869H413.703H414.735C436.03 1.01067 451.535 24.9583 447.485 50.0991Z" fill="black"/>
<path d="M448.118 40.8195C447.586 19.3875 433.752 0.96506 415.583 0.32666H414.583H413.71H412.843H411.837C393.668 0.97266 379.84 19.3951 379.302 40.8195C379.221 44.9932 379.647 49.1588 380.568 53.1847L382.954 63.8931H387.016L385.903 60.8531C383.274 53.6367 383.131 45.4643 385.504 38.1215C386.371 35.3639 386.932 32.4817 387.175 29.5487L387.44 26.6759C388.217 23.0378 390.458 20.108 393.411 18.8705C396.363 17.633 399.636 18.2521 402.129 20.5199C408.976 26.7331 418.425 26.7331 425.272 20.5199C426.88 19.042 428.848 18.2408 430.873 18.2399C435.137 18.2246 438.869 21.6805 439.941 26.6379L440.201 29.5107C440.448 32.4435 441.012 35.3252 441.878 38.0835C444.248 45.4269 444.105 53.598 441.479 60.8151L440.365 63.8551H444.428L446.827 53.1999C447.754 49.1699 448.189 44.9996 448.118 40.8195Z" fill="#7C4F40"/>
<path d="M444.434 63.8931L437.055 97.0671C434.094 109.607 424.56 118.261 413.707 118.261C402.853 118.261 393.319 109.607 390.358 97.0671L382.972 63.8931H387.029L392.503 78.9335C394.332 85.0667 401.065 84.6259 404.489 82.3991L407.653 80.3319C411.414 77.8859 415.949 77.8859 419.709 80.3319L422.873 82.3991C426.297 84.6259 433.03 85.0667 434.859 78.9335L440.334 63.8931H444.434Z" fill="#7C4F40"/>
<path d="M437.334 43.3199L434.132 42.8259L433.866 42.7575L431.683 42.3319C429.721 41.946 427.725 41.8668 425.746 42.0963C422.505 42.4846 419.668 44.8798 418.266 48.4119C417.852 49.4451 416.886 49.9806 415.963 49.6887C414.488 49.1996 412.931 49.1996 411.457 49.6887C410.533 49.9806 409.567 49.4451 409.153 48.4119C407.749 44.8806 404.91 42.4881 401.667 42.1039C399.688 41.8744 397.693 41.9536 395.731 42.3395L393.547 42.7651L393.281 42.8335L390.067 43.3503C387.677 43.6916 385.964 46.2846 386.232 49.1567C386.272 49.5433 386.362 49.9201 386.497 50.2739C387.171 51.9452 387.76 53.6633 388.263 55.4191C388.523 56.3455 388.849 57.2432 389.238 58.1019C390.008 59.8093 391.041 61.3257 392.282 62.5707C394.798 65.234 398.165 66.4296 401.483 65.8387C405.725 65.0747 409.114 61.1998 409.957 56.1487C410.039 55.601 410.091 55.0476 410.115 54.4919C410.149 53.4062 410.776 52.4777 411.653 52.2119C412.994 51.8168 414.394 51.8168 415.735 52.2119C416.612 52.4777 417.238 53.4062 417.273 54.4919C417.296 55.0476 417.349 55.601 417.431 56.1487C418.276 61.1969 421.664 65.0681 425.905 65.8311C429.223 66.422 432.589 65.2264 435.106 62.5631C436.347 61.3181 437.38 59.8017 438.15 58.0943C438.539 57.2356 438.865 56.338 439.125 55.4115C439.627 53.6557 440.217 51.9376 440.89 50.2663C441.026 49.9125 441.116 49.5357 441.156 49.1491C441.435 46.2739 439.727 43.6686 437.334 43.3199ZM408.387 55.7611C407.7 59.9673 404.886 63.2009 401.357 63.8399C398.604 64.3219 395.815 63.3302 393.724 61.1267C392.693 60.0941 391.834 58.8355 391.193 57.4179C390.562 55.9935 390.134 54.4522 389.927 52.8579C389.859 52.371 389.834 51.8768 389.851 51.3835C389.981 48.0356 392.041 45.2515 394.794 44.7031L396.604 44.3535C398.233 44.0325 399.89 43.966 401.534 44.1559C403.702 44.4147 405.676 45.7687 406.964 47.8799C407.451 48.7008 407.79 49.6355 407.957 50.6235C408.096 51.3835 408.255 52.4703 408.375 53.2987C408.498 54.1124 408.502 54.9457 408.387 55.7611ZM437.581 51.3607C437.598 51.854 437.573 52.3482 437.505 52.8351C437.298 54.4294 436.87 55.9707 436.239 57.3951C435.598 58.8127 434.739 60.0713 433.708 61.1039C431.613 63.3264 428.809 64.3274 426.044 63.8399C422.524 63.206 419.712 59.9905 419.013 55.7991C418.892 54.9771 418.892 54.1359 419.013 53.3139C419.127 52.4855 419.291 51.3835 419.431 50.6387C419.6 49.6442 419.943 48.704 420.437 47.8799C421.728 45.7461 423.719 44.3791 425.905 44.1255C427.548 43.9356 429.205 44.0021 430.834 44.3231L432.644 44.6727C435.398 45.2211 437.457 48.0052 437.587 51.3531L437.581 51.3607Z" fill="white"/>
<path d="M483.152 135.333L410.387 223.25L409.982 223.729L410.103 223.759H385.377L385.263 223.729L385.611 223.311L385.662 223.25L458.439 135.333H483.152Z" fill="#276EF1"/>
<path d="M496.537 226.7C496.144 225.393 495.746 224.093 495.315 222.809C481.679 182.097 448.505 155.748 411.972 156.612C375.438 157.477 343.154 185.375 330.864 226.7C330.719 227.209 330.567 227.719 330.427 228.22H346.584C346.768 227.711 346.951 227.202 347.141 226.7C358.4 196.083 383.229 175.877 411.081 174.665C438.932 173.453 464.914 191.449 477.988 221.008C478.817 222.862 479.589 224.762 480.292 226.7C480.481 227.209 480.665 227.719 480.842 228.22H496.98L496.537 226.7Z" fill="white"/>
<path d="M360.829 218.485C356.918 220.149 352.761 221.061 348.919 223.113C348.805 223.174 346.388 226.647 344.831 227.422C344.257 227.684 343.672 227.91 343.078 228.099H319.827L319.865 227.21C319.894 226.841 319.894 226.469 319.865 226.1L319.549 222.528C319.5 222.048 319.5 221.564 319.549 221.084C319.707 219.309 320.511 217.709 321.745 216.714H321.783L322.947 215.749C324.47 214.475 325.7 212.76 326.523 210.763L327.656 207.982C328.2 206.359 329.3 205.096 330.674 204.516H330.769L331.13 204.394L332.674 203.862C334.194 203.338 335.571 202.336 336.661 200.959L337.598 199.774C338.682 198.367 340.256 197.657 341.844 197.858C342.26 197.913 342.668 198.03 343.059 198.208C343.449 198.383 343.819 198.615 344.16 198.9L349.432 202.19C350.923 203.139 352.22 204.473 353.229 206.097L360.829 218.485Z" fill="black"/>
<path d="M512.067 227.772L511.997 228.106H478.039L477.627 227.939C476.045 227.278 472.697 223.463 471.096 222.862L478.393 211.28C479.402 209.656 480.699 208.322 482.19 207.374L487.462 204.083C487.806 203.798 488.178 203.566 488.569 203.391C490.485 202.52 492.649 203.141 494.031 204.957L494.967 206.142C496.057 207.519 497.434 208.521 498.954 209.046L500.498 209.578L500.859 209.699H500.954C502.326 210.281 503.423 211.543 503.966 213.165L505.105 215.946C505.925 217.946 507.155 219.662 508.681 220.932L509.839 221.897H509.877C511.109 222.894 511.91 224.493 512.067 226.267C512.12 226.767 512.12 227.272 512.067 227.772Z" fill="black"/>
<path d="M527.603 228.251L298.804 228.198L312.999 227.688C315.442 227.597 317.88 227.432 320.315 227.194C325.197 226.719 330.056 225.938 334.87 224.853C336.853 224.413 338.832 223.906 340.806 223.333C346.756 221.682 352.613 219.58 358.342 217.041L358.437 216.995C360.378 216.134 362.306 215.222 364.221 214.259C365.369 213.687 366.512 213.094 367.651 212.481L367.917 212.344C371.343 210.51 374.807 208.883 378.309 207.465L378.84 207.252L379.65 206.925C380.201 206.705 380.758 206.492 381.308 206.294C382.996 205.656 384.707 205.068 386.441 204.531C405.014 198.675 424.504 198.414 443.182 203.771C447.184 204.918 451.134 206.313 455.016 207.951C456.665 208.64 458.309 209.38 459.946 210.17C460.528 210.444 461.11 210.725 461.686 211.021L467.812 214.061C470.466 215.384 473.14 216.615 475.836 217.755C477.79 218.576 479.752 219.336 481.722 220.035C485.224 221.357 488.767 222.492 492.354 223.44C493.961 223.871 495.573 224.266 497.189 224.625C500.884 225.456 504.597 226.108 508.327 226.579C510.174 226.814 512.029 227.004 513.883 227.156H514.408L527.603 228.251Z" fill="white"/>
<path d="M417.785 86.9592C417.107 86.6973 416.395 86.5866 415.684 86.6324C414.362 86.7084 413.045 86.7084 411.723 86.6324C411.012 86.5866 410.299 86.6973 409.622 86.9592L403.413 89.49L404.565 90.1512C407.437 91.6984 410.556 92.4764 413.703 92.4312C416.851 92.4764 419.969 91.6984 422.842 90.1512L423.993 89.49L417.785 86.9592Z" fill="black"/>
</g>
<defs>
<clipPath id="clip0_32_235">
<rect width="605" height="228" fill="white"/>
</clipPath>
</defs>
</svg>
