<svg width="18" height="18" viewBox="0 0 18 18" fill="none" xmlns="http://www.w3.org/2000/svg">
<path d="M2.84615 4.69231C3.86576 4.69231 4.69231 3.86576 4.69231 2.84615C4.69231 1.82655 3.86576 1 2.84615 1C1.82655 1 1 1.82655 1 2.84615C1 3.86576 1.82655 4.69231 2.84615 4.69231Z" stroke="white" stroke-width="1.71429" stroke-linecap="round" stroke-linejoin="round"/>
<path d="M2.84615 10.8462C3.86576 10.8462 4.69231 10.0196 4.69231 9.00002C4.69231 7.98042 3.86576 7.15387 2.84615 7.15387C1.82655 7.15387 1 7.98042 1 9.00002C1 10.0196 1.82655 10.8462 2.84615 10.8462Z" stroke="white" stroke-width="1.71429" stroke-linecap="round" stroke-linejoin="round"/>
<path d="M8.99996 4.69231C10.0196 4.69231 10.8461 3.86576 10.8461 2.84615C10.8461 1.82655 10.0196 1 8.99996 1C7.98036 1 7.15381 1.82655 7.15381 2.84615C7.15381 3.86576 7.98036 4.69231 8.99996 4.69231Z" stroke="white" stroke-width="1.71429" stroke-linecap="round" stroke-linejoin="round"/>
<path d="M8.99996 10.8462C10.0196 10.8462 10.8461 10.0196 10.8461 9.00002C10.8461 7.98042 10.0196 7.15387 8.99996 7.15387C7.98036 7.15387 7.15381 7.98042 7.15381 9.00002C7.15381 10.0196 7.98036 10.8462 8.99996 10.8462Z" stroke="white" stroke-width="1.71429" stroke-linecap="round" stroke-linejoin="round"/>
<path d="M8.99996 17C10.0196 17 10.8461 16.1734 10.8461 15.1538C10.8461 14.1342 10.0196 13.3077 8.99996 13.3077C7.98036 13.3077 7.15381 14.1342 7.15381 15.1538C7.15381 16.1734 7.98036 17 8.99996 17Z" stroke="white" stroke-width="1.71429" stroke-linecap="round" stroke-linejoin="round"/>
<path d="M15.1538 4.69231C16.1734 4.69231 16.9999 3.86576 16.9999 2.84615C16.9999 1.82655 16.1734 1 15.1538 1C14.1342 1 13.3076 1.82655 13.3076 2.84615C13.3076 3.86576 14.1342 4.69231 15.1538 4.69231Z" stroke="white" stroke-width="1.71429" stroke-linecap="round" stroke-linejoin="round"/>
<path d="M15.1538 10.8462C16.1734 10.8462 16.9999 10.0196 16.9999 9.00002C16.9999 7.98042 16.1734 7.15387 15.1538 7.15387C14.1342 7.15387 13.3076 7.98042 13.3076 9.00002C13.3076 10.0196 14.1342 10.8462 15.1538 10.8462Z" stroke="white" stroke-width="1.71429" stroke-linecap="round" stroke-linejoin="round"/>
<path d="M2.84615 17C3.86576 17 4.69231 16.1734 4.69231 15.1538C4.69231 14.1342 3.86576 13.3077 2.84615 13.3077C1.82655 13.3077 1 14.1342 1 15.1538C1 16.1734 1.82655 17 2.84615 17Z" stroke="white" stroke-width="1.71429" stroke-linecap="round" stroke-linejoin="round"/>
<path d="M15.1538 17C16.1734 17 16.9999 16.1734 16.9999 15.1538C16.9999 14.1342 16.1734 13.3077 15.1538 13.3077C14.1342 13.3077 13.3076 14.1342 13.3076 15.1538C13.3076 16.1734 14.1342 17 15.1538 17Z" stroke="white" stroke-width="1.71429" stroke-linecap="round" stroke-linejoin="round"/>
</svg>
