<svg width="18" height="18" viewBox="0 0 18 18" fill="none" xmlns="http://www.w3.org/2000/svg">
<path d="M2.84615 4.81731C3.86576 4.81731 4.69231 3.99076 4.69231 2.97115C4.69231 1.95155 3.86576 1.125 2.84615 1.125C1.82655 1.125 1 1.95155 1 2.97115C1 3.99076 1.82655 4.81731 2.84615 4.81731Z" stroke="white" stroke-width="1.71429" stroke-linecap="round" stroke-linejoin="round"/>
<path d="M2.84615 10.9712C3.86576 10.9712 4.69231 10.1446 4.69231 9.12502C4.69231 8.10542 3.86576 7.27887 2.84615 7.27887C1.82655 7.27887 1 8.10542 1 9.12502C1 10.1446 1.82655 10.9712 2.84615 10.9712Z" stroke="white" stroke-width="1.71429" stroke-linecap="round" stroke-linejoin="round"/>
<path d="M9.00002 4.81731C10.0196 4.81731 10.8462 3.99076 10.8462 2.97115C10.8462 1.95155 10.0196 1.125 9.00002 1.125C7.98042 1.125 7.15387 1.95155 7.15387 2.97115C7.15387 3.99076 7.98042 4.81731 9.00002 4.81731Z" stroke="white" stroke-width="1.71429" stroke-linecap="round" stroke-linejoin="round"/>
<path d="M8.99996 10.9712C10.0196 10.9712 10.8461 10.1446 10.8461 9.12502C10.8461 8.10542 10.0196 7.27887 8.99996 7.27887C7.98036 7.27887 7.15381 8.10542 7.15381 9.12502C7.15381 10.1446 7.98036 10.9712 8.99996 10.9712Z" stroke="white" stroke-width="1.71429" stroke-linecap="round" stroke-linejoin="round"/>
<path d="M8.99996 17.125C10.0196 17.125 10.8461 16.2984 10.8461 15.2788C10.8461 14.2592 10.0196 13.4327 8.99996 13.4327C7.98036 13.4327 7.15381 14.2592 7.15381 15.2788C7.15381 16.2984 7.98036 17.125 8.99996 17.125Z" stroke="white" stroke-width="1.71429" stroke-linecap="round" stroke-linejoin="round"/>
<path d="M15.1538 4.81731C16.1734 4.81731 17 3.99076 17 2.97115C17 1.95155 16.1734 1.125 15.1538 1.125C14.1342 1.125 13.3077 1.95155 13.3077 2.97115C13.3077 3.99076 14.1342 4.81731 15.1538 4.81731Z" stroke="white" stroke-width="1.71429" stroke-linecap="round" stroke-linejoin="round"/>
<path d="M15.1538 10.9712C16.1734 10.9712 17 10.1446 17 9.12502C17 8.10542 16.1734 7.27887 15.1538 7.27887C14.1342 7.27887 13.3077 8.10542 13.3077 9.12502C13.3077 10.1446 14.1342 10.9712 15.1538 10.9712Z" stroke="white" stroke-width="1.71429" stroke-linecap="round" stroke-linejoin="round"/>
<path d="M2.84615 17.125C3.86576 17.125 4.69231 16.2984 4.69231 15.2788C4.69231 14.2592 3.86576 13.4327 2.84615 13.4327C1.82655 13.4327 1 14.2592 1 15.2788C1 16.2984 1.82655 17.125 2.84615 17.125Z" stroke="white" stroke-width="1.71429" stroke-linecap="round" stroke-linejoin="round"/>
<path d="M15.1538 17.125C16.1734 17.125 17 16.2984 17 15.2788C17 14.2592 16.1734 13.4327 15.1538 13.4327C14.1342 13.4327 13.3077 14.2592 13.3077 15.2788C13.3077 16.2984 14.1342 17.125 15.1538 17.125Z" stroke="white" stroke-width="1.71429" stroke-linecap="round" stroke-linejoin="round"/>
</svg>
