<svg width="40" height="33" viewBox="0 0 40 33" fill="none" xmlns="http://www.w3.org/2000/svg">
<path d="M24.25 2.75H15.75C12.75 2.75 12.0834 3.9875 11.7 5.51375L10.3334 10.9037H29.6667L28.3 5.51375C27.9167 3.9875 27.25 2.75 24.25 2.75Z" stroke="black" stroke-width="1.5" stroke-linecap="round" stroke-linejoin="round"/>
<path d="M10.3334 7.90625H9.11671M30.8834 7.90625H29.6667M12.75 14.8912H16.3667M23.6334 14.8912H27.25M20 23.375V24.75M20 28.875V30.25M5.00004 24.75L3.33337 30.25M35 24.75L36.6667 30.25M32.0667 19.69C32.2 20.8587 31.0667 21.8625 29.6167 21.8625H27.35C26.05 21.8625 25.8667 21.4087 25.6334 20.8312L25.3834 20.24C25.05 19.4287 24.8334 18.8787 23.0834 18.8787H16.9C15.1667 18.8787 14.9 19.4975 14.6 20.24L14.35 20.8312C14.1167 21.395 13.9334 21.8625 12.6334 21.8625H10.3667C8.91671 21.8625 7.78337 20.8587 7.91671 19.69L8.60004 13.6125C8.76671 12.1137 9.11671 10.89 12.2834 10.89H27.7C30.8667 10.89 31.2167 12.1137 31.3834 13.6125L32.0667 19.69Z" stroke="black" stroke-width="1.5" stroke-linecap="round" stroke-linejoin="round"/>
</svg>
