<svg width="35" height="29" viewBox="0 0 35 29" fill="none" xmlns="http://www.w3.org/2000/svg">
<path d="M8.75008 4.83335C11.1855 3.32294 14.2188 2.41669 17.5001 2.41669C25.5501 2.41669 32.0834 7.83002 32.0834 14.5C32.0834 21.17 25.5501 26.5834 17.5001 26.5834C9.45008 26.5834 2.91675 21.17 2.91675 14.5C2.91675 12.3129 3.61675 10.2588 4.85633 8.48252L17.5001 14.5" stroke="black" stroke-width="1.5" stroke-miterlimit="10" stroke-linecap="round" stroke-linejoin="round"/>
<path d="M9.96045 10.8267C9.16385 11.938 8.74556 13.2074 8.75004 14.5C8.75004 18.4996 12.673 21.75 17.5 21.75C22.3271 21.75 26.25 18.4996 26.25 14.5C26.25 10.5004 22.3271 7.25 17.5 7.25C16.173 7.25 14.9042 7.49167 13.7813 7.93875" stroke="black" stroke-width="1.5" stroke-miterlimit="10" stroke-linecap="round" stroke-linejoin="round"/>
</svg>
