<svg width="31" height="33" viewBox="0 0 31 33" fill="none" xmlns="http://www.w3.org/2000/svg">
<path d="M21.1962 5.50002C23.7021 5.50002 25.7171 7.65877 25.7171 10.3125C25.7171 12.9113 23.7796 15.0288 21.3641 15.125C21.2526 15.1113 21.1399 15.1113 21.0283 15.125M23.6891 27.5C24.6191 27.2938 25.4975 26.895 26.2208 26.3038C28.2358 24.695 28.2358 22.0413 26.2208 20.4325C25.5104 19.855 24.645 19.47 23.7279 19.25M11.8316 14.9463C11.7025 14.9325 11.5475 14.9325 11.4054 14.9463C9.92282 14.8927 8.51805 14.2269 7.48858 13.09C6.4591 11.953 5.88576 10.4341 5.88997 8.85502C5.88997 5.48627 8.44747 2.75002 11.625 2.75002C13.1443 2.72084 14.6122 3.33534 15.7059 4.45833C16.7996 5.58133 17.4294 7.12082 17.4568 8.73814C17.4843 10.3555 16.907 11.9181 15.8521 13.0824C14.7971 14.2466 13.3509 14.9171 11.8316 14.9463ZM5.37331 20.02C2.24747 22.2475 2.24747 25.8775 5.37331 28.0913C8.92539 30.6213 14.7508 30.6213 18.3029 28.0913C21.4287 25.8638 21.4287 22.2338 18.3029 20.02C14.7637 17.5038 8.93831 17.5038 5.37331 20.02Z" stroke="black" stroke-width="1.5" stroke-linecap="round" stroke-linejoin="round"/>
</svg>
