<svg width="19" height="19" viewBox="0 0 19 19" fill="none" xmlns="http://www.w3.org/2000/svg">
<g clip-path="url(#clip0_32_130)">
<path d="M10.8203 15.989C14.4251 15.2388 16.739 11.7086 15.9888 8.10384C15.2387 4.49908 11.7085 2.18512 8.10373 2.9353C4.49897 3.68548 2.18501 7.21564 2.93519 10.8204C3.68537 14.4252 7.21553 16.7391 10.8203 15.989Z" stroke="white" stroke-width="1.5" stroke-linecap="round" stroke-linejoin="round"/>
<path d="M5.629 4.13134L6.28168 3.99551C5.80242 8.07306 6.66043 12.196 8.72659 15.7438L8.07391 15.8796M10.1978 3.18054C12.2639 6.72837 13.1219 10.8513 12.6427 14.9288" stroke="white" stroke-width="1.5" stroke-linecap="round" stroke-linejoin="round"/>
<path d="M4.13138 13.2953L3.99555 12.6427C8.0731 13.1219 12.196 12.2639 15.7438 10.1978L15.8797 10.8504M3.18058 8.72657C6.72841 6.66041 10.8513 5.8024 14.9289 6.28166" stroke="white" stroke-width="1.5" stroke-linecap="round" stroke-linejoin="round"/>
</g>
<defs>
<clipPath id="clip0_32_130">
<rect width="16" height="16" fill="white" transform="translate(0 3.25989) rotate(-11.7559)"/>
</clipPath>
</defs>
</svg>
