<svg width="19" height="18" viewBox="0 0 19 18" fill="none" xmlns="http://www.w3.org/2000/svg">
<path d="M3.1667 6H2.37504M16.625 6H15.8334M9.50004 2.25V3.75M8.31254 3.75H10.6875M4.75004 11.25H7.12504M11.875 11.25H14.25M12.2788 2.1225H6.72129C4.75004 2.1225 4.31462 3.0525 4.06129 4.1925L3.1667 8.25H15.8334L14.9388 4.1925C14.6855 3.0525 14.25 2.1225 12.2788 2.1225ZM17.4088 14.865C17.4959 15.7425 16.7517 16.5 15.8017 16.5H14.3134C13.4584 16.5 13.3396 16.155 13.1892 15.7275L13.0309 15.2775C12.8092 14.6625 12.6667 14.25 11.5267 14.25H7.47337C6.33337 14.25 6.16712 14.715 5.9692 15.2775L5.81087 15.7275C5.66045 16.155 5.5417 16.5 4.6867 16.5H3.19837C2.24837 16.5 1.5042 15.7425 1.59129 14.865L2.03462 10.2975C2.14545 9.1725 2.37504 8.25 4.4492 8.25H14.5509C16.625 8.25 16.8546 9.1725 16.9655 10.2975L17.4088 14.865Z" stroke="black" stroke-width="1.5" stroke-linecap="round" stroke-linejoin="round"/>
</svg>
