<svg width="22" height="22" viewBox="0 0 22 22" fill="none" xmlns="http://www.w3.org/2000/svg">
<path d="M13.75 1.83331V11C13.75 12.0083 12.925 12.8333 11.9166 12.8333H1.83331V5.49998C1.83331 3.47415 3.47415 1.83331 5.49998 1.83331H13.75Z" stroke="black" stroke-width="1.5" stroke-linecap="round" stroke-linejoin="round"/>
<path d="M20.1666 12.8333V15.5833C20.1666 17.105 18.9383 18.3333 17.4166 18.3333H16.5C16.5 17.325 15.675 16.5 14.6666 16.5C13.6583 16.5 12.8333 17.325 12.8333 18.3333H9.16665C9.16665 17.325 8.34165 16.5 7.33331 16.5C6.32498 16.5 5.49998 17.325 5.49998 18.3333H4.58331C3.06165 18.3333 1.83331 17.105 1.83331 15.5833V12.8333H11.9166C12.925 12.8333 13.75 12.0083 13.75 11V4.58331H15.4366C16.0966 4.58331 16.7016 4.94081 17.0316 5.50915L18.5991 8.24998H17.4166C16.9125 8.24998 16.5 8.66248 16.5 9.16665V11.9166C16.5 12.4208 16.9125 12.8333 17.4166 12.8333H20.1666Z" stroke="black" stroke-width="1.5" stroke-linecap="round" stroke-linejoin="round"/>
<path d="M7.33333 20.1667C7.81956 20.1667 8.28588 19.9735 8.6297 19.6297C8.97351 19.2859 9.16667 18.8196 9.16667 18.3333C9.16667 17.8471 8.97351 17.3808 8.6297 17.037C8.28588 16.6932 7.81956 16.5 7.33333 16.5C6.8471 16.5 6.38079 16.6932 6.03697 17.037C5.69315 17.3808 5.5 17.8471 5.5 18.3333C5.5 18.8196 5.69315 19.2859 6.03697 19.6297C6.38079 19.9735 6.8471 20.1667 7.33333 20.1667ZM14.6667 20.1667C15.1529 20.1667 15.6192 19.9735 15.963 19.6297C16.3068 19.2859 16.5 18.8196 16.5 18.3333C16.5 17.8471 16.3068 17.3808 15.963 17.037C15.6192 16.6932 15.1529 16.5 14.6667 16.5C14.1804 16.5 13.7141 16.6932 13.3703 17.037C13.0265 17.3808 12.8333 17.8471 12.8333 18.3333C12.8333 18.8196 13.0265 19.2859 13.3703 19.6297C13.7141 19.9735 14.1804 20.1667 14.6667 20.1667ZM20.1667 11V12.8333H17.4167C16.9125 12.8333 16.5 12.4208 16.5 11.9167V9.16667C16.5 8.6625 16.9125 8.25 17.4167 8.25H18.5992L20.1667 11Z" stroke="black" stroke-width="1.5" stroke-linecap="round" stroke-linejoin="round"/>
</svg>
