<svg width="19" height="24" viewBox="0 0 19 24" fill="none" xmlns="http://www.w3.org/2000/svg">
<path d="M8.94583 14C9.65971 14 10.3443 13.6418 10.8491 13.0042C11.3539 12.3666 11.6375 11.5017 11.6375 10.6C11.6375 9.69828 11.3539 8.83347 10.8491 8.19585C10.3443 7.55823 9.65971 7.20001 8.94583 7.20001C8.23196 7.20001 7.54732 7.55823 7.04254 8.19585C6.53775 8.83347 6.25417 9.69828 6.25417 10.6C6.25417 11.5017 6.53775 12.3666 7.04254 13.0042C7.54732 13.6418 8.23196 14 8.94583 14Z" stroke="black" stroke-width="1.5" stroke-miterlimit="10"/>
<path d="M11.9542 14.8L9.57916 17.8M9.5 22C13.8724 22 17.4167 17.523 17.4167 12C17.4167 6.477 13.8724 2 9.5 2C5.12762 2 1.58333 6.477 1.58333 12C1.58333 17.523 5.12762 22 9.5 22Z" stroke="black" stroke-width="1.5" stroke-miterlimit="10" stroke-linecap="round" stroke-linejoin="round"/>
</svg>
