<svg width="19" height="18" viewBox="0 0 19 18" fill="none" xmlns="http://www.w3.org/2000/svg">
<g clip-path="url(#clip0_8_182)">
<path d="M15.0179 16.5H3.93457C1.55957 16.5 1.55957 15.4875 1.55957 14.25V13.5C1.55957 13.0875 1.91582 12.75 2.35124 12.75H16.6012C17.0367 12.75 17.3929 13.0875 17.3929 13.5V14.25C17.3929 15.4875 17.3929 16.5 15.0179 16.5ZM16.4033 9.75V12.75H2.58874V9.75C2.58895 8.15876 3.25627 6.63275 4.44396 5.50758C5.63164 4.3824 7.24243 3.7502 8.92207 3.75H10.07C10.5292 3.75 10.9804 3.795 11.4079 3.885C14.2658 4.47 16.4033 6.87 16.4033 9.75Z" stroke="black" stroke-width="1.5" stroke-linecap="round" stroke-linejoin="round"/>
<path d="M11.875 8.25H7.125M11.4792 3.375C11.4792 3.555 11.4554 3.72 11.4079 3.885C10.9804 3.795 10.5292 3.75 10.07 3.75H8.92208C8.46292 3.75 8.01958 3.795 7.59208 3.885C7.54458 3.72 7.52083 3.555 7.52083 3.375C7.52083 2.87772 7.72935 2.40081 8.10052 2.04917C8.47168 1.69754 8.97509 1.5 9.5 1.5C10.0249 1.5 10.5283 1.69754 10.8995 2.04917C11.2706 2.40081 11.4792 2.87772 11.4792 3.375Z" stroke="black" stroke-width="1.5" stroke-linecap="round" stroke-linejoin="round"/>
</g>
<defs>
<clipPath id="clip0_8_182">
<rect width="19" height="18" fill="white"/>
</clipPath>
</defs>
</svg>
