<svg width="19" height="18" viewBox="0 0 19 18" fill="none" xmlns="http://www.w3.org/2000/svg">
<g clip-path="url(#clip0_7_130)">
<path d="M11.875 1.5V9C11.875 9.825 11.1625 10.5 10.2917 10.5H1.58333V4.5C1.58333 2.8425 3.00041 1.5 4.74999 1.5H11.875Z" stroke="black" stroke-width="1.5" stroke-linecap="round" stroke-linejoin="round"/>
<path d="M17.4167 10.5V12.75C17.4167 13.995 16.3558 15 15.0417 15H14.25C14.25 14.175 13.5375 13.5 12.6667 13.5C11.7958 13.5 11.0833 14.175 11.0833 15H7.91666C7.91666 14.175 7.20416 13.5 6.33333 13.5C5.46249 13.5 4.74999 14.175 4.74999 15H3.95833C2.64416 15 1.58333 13.995 1.58333 12.75V10.5H10.2917C11.1625 10.5 11.875 9.825 11.875 9V3.75H13.3317C13.9017 3.75 14.4242 4.0425 14.7092 4.5075L16.0629 6.75H15.0417C14.6062 6.75 14.25 7.0875 14.25 7.5V9.75C14.25 10.1625 14.6062 10.5 15.0417 10.5H17.4167Z" stroke="black" stroke-width="1.5" stroke-linecap="round" stroke-linejoin="round"/>
<path d="M6.33333 16.5C6.75326 16.5 7.15599 16.342 7.45292 16.0607C7.74985 15.7794 7.91667 15.3978 7.91667 15C7.91667 14.6022 7.74985 14.2206 7.45292 13.9393C7.15599 13.658 6.75326 13.5 6.33333 13.5C5.91341 13.5 5.51068 13.658 5.21375 13.9393C4.91681 14.2206 4.75 14.6022 4.75 15C4.75 15.3978 4.91681 15.7794 5.21375 16.0607C5.51068 16.342 5.91341 16.5 6.33333 16.5ZM12.6667 16.5C13.0866 16.5 13.4893 16.342 13.7863 16.0607C14.0832 15.7794 14.25 15.3978 14.25 15C14.25 14.6022 14.0832 14.2206 13.7863 13.9393C13.4893 13.658 13.0866 13.5 12.6667 13.5C12.2467 13.5 11.844 13.658 11.5471 13.9393C11.2501 14.2206 11.0833 14.6022 11.0833 15C11.0833 15.3978 11.2501 15.7794 11.5471 16.0607C11.844 16.342 12.2467 16.5 12.6667 16.5ZM17.4167 9V10.5H15.0417C14.6063 10.5 14.25 10.1625 14.25 9.75V7.5C14.25 7.0875 14.6063 6.75 15.0417 6.75H16.0629L17.4167 9Z" stroke="black" stroke-width="1.5" stroke-linecap="round" stroke-linejoin="round"/>
</g>
<defs>
<clipPath id="clip0_7_130">
<rect width="19" height="18" fill="white"/>
</clipPath>
</defs>
</svg>
