<svg width="19" height="18" viewBox="0 0 19 18" fill="none" xmlns="http://www.w3.org/2000/svg">
<g clip-path="url(#clip0_7_127)">
<path d="M15.0179 16.5H3.93459C1.55959 16.5 1.55959 15.4875 1.55959 14.25V13.5C1.55959 13.0875 1.91584 12.75 2.35125 12.75H16.6013C17.0367 12.75 17.3929 13.0875 17.3929 13.5V14.25C17.3929 15.4875 17.3929 16.5 15.0179 16.5ZM16.4033 9.75V12.75H2.58875V9.75C2.58896 8.15876 3.25629 6.63275 4.44397 5.50758C5.63166 4.3824 7.24245 3.7502 8.92209 3.75H10.07C10.5292 3.75 10.9804 3.795 11.4079 3.885C14.2658 4.47 16.4033 6.87 16.4033 9.75Z" stroke="black" stroke-width="1.5" stroke-linecap="round" stroke-linejoin="round"/>
<path d="M11.875 8.25H7.125M11.4792 3.375C11.4792 3.555 11.4554 3.72 11.4079 3.885C10.9804 3.795 10.5292 3.75 10.07 3.75H8.92208C8.46292 3.75 8.01958 3.795 7.59208 3.885C7.54458 3.72 7.52083 3.555 7.52083 3.375C7.52083 2.87772 7.72935 2.40081 8.10052 2.04917C8.47168 1.69754 8.97509 1.5 9.5 1.5C10.0249 1.5 10.5283 1.69754 10.8995 2.04917C11.2706 2.40081 11.4792 2.87772 11.4792 3.375Z" stroke="black" stroke-width="1.5" stroke-linecap="round" stroke-linejoin="round"/>
</g>
<defs>
<clipPath id="clip0_7_127">
<rect width="19" height="18" fill="white"/>
</clipPath>
</defs>
</svg>
