<svg width="35" height="29" viewBox="0 0 35 29" fill="none" xmlns="http://www.w3.org/2000/svg">
<path d="M8.74996 4.83329C11.1854 3.32288 14.2187 2.41663 17.5 2.41663C25.55 2.41663 32.0833 7.82996 32.0833 14.5C32.0833 21.17 25.55 26.5833 17.5 26.5833C9.44996 26.5833 2.91663 21.17 2.91663 14.5C2.91663 12.3129 3.61663 10.2587 4.85621 8.48246L17.5 14.5" stroke="black" stroke-width="1.5" stroke-miterlimit="10" stroke-linecap="round" stroke-linejoin="round"/>
<path d="M9.96045 10.8267C9.16385 11.938 8.74556 13.2074 8.75004 14.5C8.75004 18.4996 12.673 21.75 17.5 21.75C22.3271 21.75 26.25 18.4996 26.25 14.5C26.25 10.5004 22.3271 7.25 17.5 7.25C16.173 7.25 14.9042 7.49167 13.7813 7.93875" stroke="black" stroke-width="1.5" stroke-miterlimit="10" stroke-linecap="round" stroke-linejoin="round"/>
</svg>
