<svg width="31" height="33" viewBox="0 0 31 33" fill="none" xmlns="http://www.w3.org/2000/svg">
<path d="M21.1963 5.50002C23.7022 5.50002 25.7172 7.65877 25.7172 10.3125C25.7172 12.9113 23.7797 15.0288 21.3643 15.125C21.2527 15.1113 21.14 15.1113 21.0284 15.125M23.6893 27.5C24.6193 27.2938 25.4976 26.895 26.2209 26.3038C28.2359 24.695 28.2359 22.0413 26.2209 20.4325C25.5105 19.855 24.6451 19.47 23.728 19.25M11.8318 14.9463C11.7026 14.9325 11.5476 14.9325 11.4055 14.9463C9.92294 14.8927 8.51817 14.2269 7.4887 13.09C6.45922 11.953 5.88588 10.4341 5.89009 8.85502C5.89009 5.48627 8.44759 2.75002 11.6251 2.75002C13.1444 2.72084 14.6124 3.33534 15.706 4.45833C16.7997 5.58133 17.4296 7.12082 17.457 8.73814C17.4844 10.3555 16.9071 11.9181 15.8522 13.0824C14.7973 14.2466 13.3511 14.9171 11.8318 14.9463ZM5.37343 20.02C2.24759 22.2475 2.24759 25.8775 5.37343 28.0913C8.92551 30.6213 14.7509 30.6213 18.303 28.0913C21.4288 25.8638 21.4288 22.2338 18.303 20.02C14.7638 17.5038 8.93843 17.5038 5.37343 20.02Z" stroke="black" stroke-width="1.5" stroke-linecap="round" stroke-linejoin="round"/>
</svg>
