<svg width="31" height="33" viewBox="0 0 31 33" fill="none" xmlns="http://www.w3.org/2000/svg">
<path d="M21.1961 5.50002C23.7019 5.50002 25.7169 7.65877 25.7169 10.3125C25.7169 12.9113 23.7794 15.0288 21.364 15.125C21.2524 15.1113 21.1398 15.1113 21.0282 15.125M23.689 27.5C24.619 27.2938 25.4973 26.895 26.2207 26.3038C28.2357 24.695 28.2357 22.0413 26.2207 20.4325C25.5103 19.855 24.6449 19.47 23.7278 19.25M11.8315 14.9463C11.7024 14.9325 11.5474 14.9325 11.4053 14.9463C9.9227 14.8927 8.51793 14.2269 7.48845 13.09C6.45898 11.953 5.88564 10.4341 5.88985 8.85502C5.88985 5.48627 8.44735 2.75002 11.6249 2.75002C13.1442 2.72084 14.6121 3.33534 15.7058 4.45833C16.7995 5.58133 17.4293 7.12082 17.4567 8.73814C17.4841 10.3555 16.9069 11.9181 15.8519 13.0824C14.797 14.2466 13.3508 14.9171 11.8315 14.9463ZM5.37318 20.02C2.24735 22.2475 2.24735 25.8775 5.37318 28.0913C8.92527 30.6213 14.7507 30.6213 18.3028 28.0913C21.4286 25.8638 21.4286 22.2338 18.3028 20.02C14.7636 17.5038 8.93818 17.5038 5.37318 20.02Z" stroke="black" stroke-width="1.5" stroke-linecap="round" stroke-linejoin="round"/>
</svg>
