<svg width="19" height="18" viewBox="0 0 19 18" fill="none" xmlns="http://www.w3.org/2000/svg">
<path d="M3.16667 6H2.37501M16.625 6H15.8333M9.50001 2.25V3.75M8.31251 3.75H10.6875M4.75001 11.25H7.12501M11.875 11.25H14.25M12.2788 2.1225H6.72125C4.75 2.1225 4.31459 3.0525 4.06126 4.1925L3.16667 8.25H15.8333L14.9388 4.1925C14.6854 3.0525 14.25 2.1225 12.2788 2.1225ZM17.4088 14.865C17.4958 15.7425 16.7517 16.5 15.8017 16.5H14.3133C13.4583 16.5 13.3396 16.155 13.1892 15.7275L13.0308 15.2775C12.8092 14.6625 12.6667 14.25 11.5267 14.25H7.47334C6.33334 14.25 6.16709 14.715 5.96917 15.2775L5.81084 15.7275C5.66042 16.155 5.54167 16.5 4.68667 16.5H3.19834C2.24834 16.5 1.50417 15.7425 1.59125 14.865L2.03459 10.2975C2.14542 9.1725 2.37501 8.25 4.44917 8.25H14.5508C16.625 8.25 16.8546 9.1725 16.9654 10.2975L17.4088 14.865Z" stroke="black" stroke-width="1.5" stroke-linecap="round" stroke-linejoin="round"/>
</svg>
