<svg width="19" height="18" viewBox="0 0 19 18" fill="none" xmlns="http://www.w3.org/2000/svg">
<path d="M3.16658 6H2.37491M16.6249 6H15.8332M9.49991 2.25V3.75M8.31241 3.75H10.6874M4.74991 11.25H7.12491M11.8749 11.25H14.2499M12.2787 2.1225H6.72116C4.74991 2.1225 4.3145 3.0525 4.06116 4.1925L3.16658 8.25H15.8332L14.9387 4.1925C14.6853 3.0525 14.2499 2.1225 12.2787 2.1225ZM17.4087 14.865C17.4957 15.7425 16.7516 16.5 15.8016 16.5H14.3132C13.4582 16.5 13.3395 16.155 13.1891 15.7275L13.0307 15.2775C12.8091 14.6625 12.6666 14.25 11.5266 14.25H7.47325C6.33325 14.25 6.167 14.715 5.96908 15.2775L5.81075 15.7275C5.66033 16.155 5.54158 16.5 4.68658 16.5H3.19825C2.24825 16.5 1.50408 15.7425 1.59116 14.865L2.0345 10.2975C2.14533 9.1725 2.37491 8.25 4.44908 8.25H14.5507C16.6249 8.25 16.8545 9.1725 16.9653 10.2975L17.4087 14.865Z" stroke="black" stroke-width="1.5" stroke-linecap="round" stroke-linejoin="round"/>
</svg>
