<svg width="19" height="20" viewBox="0 0 19 20" fill="none" xmlns="http://www.w3.org/2000/svg">
<g clip-path="url(#clip0_24_77)">
<path d="M10.8204 16.614C14.4252 15.8638 16.7391 12.3336 15.989 8.72884C15.2388 5.12408 11.7086 2.81012 8.10386 3.5603C4.49909 4.31048 2.18513 7.84064 2.93531 11.4454C3.68549 15.0502 7.21565 17.3641 10.8204 16.614Z" stroke="white" stroke-width="1.5" stroke-linecap="round" stroke-linejoin="round"/>
<path d="M5.62894 4.75634L6.28162 4.62051C5.80236 8.69806 6.66037 12.821 8.72653 16.3688L8.07385 16.5046M10.1977 3.80554C12.2639 7.35337 13.1219 11.4763 12.6426 15.5538" stroke="white" stroke-width="1.5" stroke-linecap="round" stroke-linejoin="round"/>
<path d="M4.13132 13.9203L3.99549 13.2677C8.07304 13.7469 12.196 12.8889 15.7438 10.8228L15.8796 11.4754M3.18052 9.35157C6.72835 7.28541 10.8513 6.4274 14.9288 6.90666" stroke="white" stroke-width="1.5" stroke-linecap="round" stroke-linejoin="round"/>
</g>
<defs>
<clipPath id="clip0_24_77">
<rect width="16" height="16" fill="white" transform="translate(0 3.88489) rotate(-11.7559)"/>
</clipPath>
</defs>
</svg>
