<svg width="40" height="33" viewBox="0 0 40 33" fill="none" xmlns="http://www.w3.org/2000/svg">
<path d="M24.2499 2.75H15.7499C12.7499 2.75 12.0833 3.9875 11.6999 5.51375L10.3333 10.9037H29.6666L28.2999 5.51375C27.9166 3.9875 27.2499 2.75 24.2499 2.75Z" stroke="black" stroke-width="1.5" stroke-linecap="round" stroke-linejoin="round"/>
<path d="M10.3333 7.90625H9.11659M30.8833 7.90625H29.6666M12.7499 14.8912H16.3666M23.6333 14.8912H27.2499M19.9999 23.375V24.75M19.9999 28.875V30.25M4.99992 24.75L3.33325 30.25M34.9999 24.75L36.6666 30.25M32.0666 19.69C32.1999 20.8587 31.0666 21.8625 29.6166 21.8625H27.3499C26.0499 21.8625 25.8666 21.4087 25.6333 20.8312L25.3833 20.24C25.0499 19.4287 24.8333 18.8787 23.0833 18.8787H16.8999C15.1666 18.8787 14.8999 19.4975 14.5999 20.24L14.3499 20.8312C14.1166 21.395 13.9333 21.8625 12.6333 21.8625H10.3666C8.91659 21.8625 7.78325 20.8587 7.91659 19.69L8.59992 13.6125C8.76659 12.1137 9.11659 10.89 12.2833 10.89H27.6999C30.8666 10.89 31.2166 12.1137 31.3833 13.6125L32.0666 19.69Z" stroke="black" stroke-width="1.5" stroke-linecap="round" stroke-linejoin="round"/>
</svg>
