<svg width="24" height="24" viewBox="0 0 24 24" fill="none" xmlns="http://www.w3.org/2000/svg">
<path fill-rule="evenodd" clip-rule="evenodd" d="M0 20.45H23.9938V3H0V20.45ZM3.27188 17.1781H20.7219V6.27188H3.27188V17.1781Z" fill="black"/>
<path fill-rule="evenodd" clip-rule="evenodd" d="M3.27185 9.0001H5.99998V6.27197H3.27185V9.0001Z" fill="black"/>
<path fill-rule="evenodd" clip-rule="evenodd" d="M18 17.1782H20.7219V14.4563H18V17.1782Z" fill="black"/>
<path fill-rule="evenodd" clip-rule="evenodd" d="M11.9968 13.361C11.0949 13.361 10.3609 12.627 10.3609 11.725C10.3609 10.8231 11.0949 10.0891 11.9968 10.0891C12.8988 10.0891 13.6328 10.8231 13.6328 11.725C13.6328 12.627 12.8988 13.361 11.9968 13.361Z" fill="white"/>
<path fill-rule="evenodd" clip-rule="evenodd" d="M11.9969 8.95312C10.4659 8.95312 9.22498 10.194 9.22498 11.725C9.22498 13.256 10.4659 14.4969 11.9969 14.4969C13.5278 14.4969 14.7687 13.256 14.7687 11.725C14.7687 10.194 13.5278 8.95312 11.9969 8.95312Z" fill="black"/>
</svg>
