<svg width="24" height="24" viewBox="0 0 24 24" fill="none" xmlns="http://www.w3.org/2000/svg">
<path fill-rule="evenodd" clip-rule="evenodd" d="M8.34788 7.30435C7.19693 7.30435 6.26093 6.36835 6.26093 5.21739C6.26093 4.06643 7.19693 3.13043 8.34788 3.13043C9.49884 3.13043 10.4348 4.06643 10.4348 5.21739C10.4348 6.36835 9.49884 7.30435 8.34788 7.30435ZM8.34788 0C5.46684 0 3.13049 2.3353 3.13049 5.21739C3.13049 8.09948 5.46684 10.4348 8.34788 10.4348C11.2289 10.4348 13.5653 8.09948 13.5653 5.21739C13.5653 2.3353 11.2289 0 8.34788 0Z" fill="black"/>
<path fill-rule="evenodd" clip-rule="evenodd" d="M0 18.7826V24H3.13043V18.7826C3.13043 17.0567 4.53496 15.6522 6.26087 15.6522H10.4348V12.5217H6.26087C2.81739 12.5217 0 15.3391 0 18.7826Z" fill="black"/>
<mask id="mask0_14_119" style="mask-type:luminance" maskUnits="userSpaceOnUse" x="0" y="0" width="23" height="24">
<path d="M0 24H22.9565V0H0V24Z" fill="black"/>
</mask>
<g mask="url(#mask0_14_119)">
<path fill-rule="evenodd" clip-rule="evenodd" d="M15.6522 17.7391H19.8261V15.6522H15.6522V17.7391ZM12.5217 12.5217V22.9565V24L15.6522 20.8696H22.9565V12.5217H12.5217Z" fill="black"/>
</g>
</svg>
