<svg width="18" height="19" viewBox="0 0 18 19" fill="none" xmlns="http://www.w3.org/2000/svg">
<path d="M17 17.5C17 14.404 13.4144 11.9 9 11.9C4.58556 11.9 1 14.404 1 17.5M9 9.5C10.235 9.5 11.4194 9.07857 12.2927 8.32843C13.166 7.57828 13.6566 6.56087 13.6566 5.5C13.6566 4.43913 13.166 3.42172 12.2927 2.67157C11.4194 1.92143 10.235 1.5 9 1.5C7.765 1.5 6.58058 1.92143 5.7073 2.67157C4.83402 3.42172 4.34342 4.43913 4.34342 5.5C4.34342 6.56087 4.83402 7.57828 5.7073 8.32843C6.58058 9.07857 7.765 9.5 9 9.5Z" stroke="white" stroke-width="1.5" stroke-linecap="round" stroke-linejoin="round"/>
</svg>
