<svg width="21" height="15" viewBox="0 0 21 15" fill="none" xmlns="http://www.w3.org/2000/svg">
<path d="M5.61473 4.65678V4.03026C5.61473 2.577 7.5797 1.14957 10.0223 1.01393C10.701 0.974255 11.3862 1.01957 12.0337 1.14694C12.6811 1.27432 13.2766 1.48094 13.7818 1.75351C14.287 2.02608 14.6906 2.35855 14.9668 2.72954C15.243 3.10052 15.3855 3.5018 15.3853 3.90754V4.79888M7.24316 13.9125H13.7568C18.121 13.9125 18.9027 12.8726 19.1306 11.6066L19.9448 7.73124C20.238 6.15526 19.478 4.86993 14.8425 4.86993H6.15754C1.52197 4.86993 0.762037 6.15526 1.05515 7.73124L1.86936 11.6066C2.09734 12.8726 2.87899 13.9125 7.24316 13.9125Z" stroke="black" stroke-width="1.5" stroke-miterlimit="10" stroke-linecap="round" stroke-linejoin="round"/>
</svg>
