<svg width="18" height="18" viewBox="0 0 18 18" fill="none" xmlns="http://www.w3.org/2000/svg">
<path d="M17 17C17 13.904 13.4144 11.4 9 11.4C4.58556 11.4 1 13.904 1 17M9 9C10.235 9 11.4194 8.57857 12.2927 7.82843C13.166 7.07828 13.6566 6.06087 13.6566 5C13.6566 3.93913 13.166 2.92172 12.2927 2.17157C11.4194 1.42143 10.235 1 9 1C7.765 1 6.58058 1.42143 5.7073 2.17157C4.83402 2.92172 4.34342 3.93913 4.34342 5C4.34342 6.06087 4.83402 7.07828 5.7073 7.82843C6.58058 8.57857 7.765 9 9 9Z" stroke="white" stroke-width="1.5" stroke-linecap="round" stroke-linejoin="round"/>
</svg>
